<svg width="25" height="25" viewBox="0 0 25 25" fill="none" xmlns="http://www.w3.org/2000/svg">
<path fill-rule="evenodd" clip-rule="evenodd" d="M13.5 20.4978L19.1852 13.9911C19.4577 13.6792 19.9315 13.6473 20.2435 13.9198C20.5554 14.1924 20.5873 14.6662 20.3148 14.9781L13.3247 22.9781C13.3229 22.9801 13.3211 22.9822 13.3193 22.9842C13.1818 23.1445 12.9777 23.246 12.75 23.246C12.471 23.246 12.2277 23.0937 12.0984 22.8677L5.18591 14.9789C4.91292 14.6673 4.94418 14.1935 5.25571 13.9205C5.56725 13.6475 6.04109 13.6788 6.31407 13.9903L12 20.4793L12 2.75C12 2.33579 12.3358 2 12.75 2C13.1642 2 13.5 2.33579 13.5 2.75L13.5 20.4978Z" fill="#919EAB"/>
</svg>
