<svg width="24" height="24" viewBox="0 0 24 24" fill="none" xmlns="http://www.w3.org/2000/svg">
<path fill-rule="evenodd" clip-rule="evenodd" d="M3.82446 6.0263L3.64206 4.52963C3.57635 3.89515 3.03546 3.41266 2.38995 3.41266H1.71554C1.29825 3.41266 0.959991 3.07848 0.959991 2.66629C0.959991 2.2541 1.29825 1.91992 1.71554 1.91992H2.38995C3.8105 1.91992 5.00073 2.98164 5.14531 4.37771L5.28297 5.70695H20.6163C20.9333 5.70695 21.1714 5.99285 21.1104 6.30016L19.7709 13.049C19.4466 14.6828 17.9971 15.8613 16.3119 15.8613H8.28336C8.51491 16.8706 9.42797 17.6023 10.493 17.6023H16.8165C16.8538 17.6023 16.8908 17.605 16.8722 17.6083C16.9276 17.6043 16.9833 17.6023 17.0392 17.6023C18.2908 17.6023 19.3054 18.6047 19.3054 19.8411C19.3054 21.0776 18.2908 22.0799 17.0392 22.0799C15.7876 22.0799 14.773 21.0776 14.773 19.8411C14.773 19.5835 14.8172 19.3319 14.9019 19.095H12.1267C12.2115 19.3319 12.2557 19.5835 12.2557 19.8411C12.2557 21.0776 11.2411 22.0799 9.98947 22.0799C8.73786 22.0799 7.72327 21.0776 7.72327 19.8411C7.72327 19.2958 7.92194 18.7819 8.27106 18.3814C7.41223 17.7635 6.84568 16.8104 6.73583 15.7467L6.72423 15.6344C5.4946 15.1719 4.5871 14.0477 4.46622 12.6823L4.16172 9.24294C4.15658 9.22166 4.1528 9.19981 4.15049 9.17746L3.82446 6.0263ZM9.98947 20.8361C10.5457 20.8361 10.9966 20.3906 10.9966 19.8411C10.9966 19.2916 10.5457 18.8462 9.98947 18.8462C9.43326 18.8462 8.98237 19.2916 8.98237 19.8411C8.98237 20.3906 9.43326 20.8361 9.98947 20.8361ZM17.0392 20.8361C17.5954 20.8361 18.0463 20.3906 18.0463 19.8411C18.0463 19.2916 17.5954 18.8462 17.0392 18.8462C16.483 18.8462 16.0321 19.2916 16.0321 19.8411C16.0321 20.3906 16.483 20.8361 17.0392 20.8361Z" fill="#919EAB"/>
</svg>
