<svg width="20" height="20" viewBox="0 0 20 20" fill="none" xmlns="http://www.w3.org/2000/svg">
<path fill-rule="evenodd" clip-rule="evenodd" d="M13.6 8.13595C13.288 7.82578 12.784 7.82578 12.472 8.13595L9.60002 10.968L6.76802 8.13595C6.45599 7.82578 5.95205 7.82578 5.64002 8.13595C5.48857 8.28617 5.40338 8.49064 5.40338 8.70395C5.40338 8.91726 5.48857 9.12174 5.64002 9.27195L9.03202 12.664C9.18223 12.8154 9.38671 12.9006 9.60002 12.9006C9.81333 12.9006 10.0178 12.8154 10.168 12.664L13.6 9.27195C13.7515 9.12174 13.8367 8.91726 13.8367 8.70395C13.8367 8.49064 13.7515 8.28617 13.6 8.13595Z" fill="#919EAB"/>
</svg>
