<svg width="44" height="44" viewBox="0 0 44 44" fill="none" xmlns="http://www.w3.org/2000/svg">
<rect width="44" height="44" rx="4" fill="#212B36"/>
<path fill-rule="evenodd" clip-rule="evenodd" d="M27.0254 26.0079L29.469 28.4509C30.148 29.1296 29.1299 30.148 28.451 29.4693L26.0071 27.0261C23.0714 29.4473 18.7405 29.2623 16.0191 26.541C13.1136 23.6355 13.1136 18.9247 16.0191 16.0192C18.9246 13.1137 23.6354 13.1137 26.5409 16.0192C29.2625 18.7408 29.4473 23.0722 27.0254 26.0079ZM25.5226 17.0374C23.1795 14.6943 19.3805 14.6943 17.0374 17.0374C14.6942 19.3806 14.6942 23.1796 17.0374 25.5227C19.3805 27.8659 23.1795 27.8659 25.5226 25.5227C27.8658 23.1796 27.8658 19.3806 25.5226 17.0374Z" fill="white"/>
</svg>
