<svg width="23" height="22" viewBox="0 0 23 22" fill="none" xmlns="http://www.w3.org/2000/svg">
<path fill-rule="evenodd" clip-rule="evenodd" d="M9.23488 8.84255L11.4992 6.67577L13.7635 8.84255C13.9491 9.02089 14.2019 9.12121 14.4655 9.12121C14.7291 9.12121 14.9819 9.02089 15.1675 8.84255C15.3547 8.66566 15.46 8.42487 15.46 8.17367C15.46 7.92248 15.3547 7.68169 15.1675 7.5048L12.2012 4.67857C12.0155 4.50022 11.7628 4.3999 11.4992 4.3999C11.2355 4.3999 10.9828 4.50022 10.7971 4.67857L7.83082 7.5048C7.4431 7.87421 7.4431 8.47314 7.83082 8.84255C8.21854 9.21196 8.84716 9.21196 9.23488 8.84255ZM13.7635 13.1573L11.4992 15.324L9.23487 13.1573C8.98406 12.9183 8.6185 12.825 8.27588 12.9124C7.93327 12.9999 7.66566 13.2549 7.57385 13.5813C7.48205 13.9077 7.58 14.256 7.83081 14.495L10.7971 17.3212C10.9828 17.4996 11.2355 17.5999 11.4992 17.5999C11.7628 17.5999 12.0155 17.4996 12.2012 17.3212L15.1675 14.495C15.5552 14.1256 15.5552 13.5267 15.1675 13.1573C14.7798 12.7878 14.1512 12.7878 13.7635 13.1573Z" fill="#454F5B"/>
</svg>
