<svg width="20" height="20" viewBox="0 0 20 20" fill="none" xmlns="http://www.w3.org/2000/svg">
<path fill-rule="evenodd" clip-rule="evenodd" d="M18.3961 8.22918C18.4339 7.1188 18.195 6.01673 17.7017 5.0253C17.367 4.6185 16.9024 4.34397 16.389 4.24955C14.2656 4.05369 12.1333 3.97341 10.0014 4.00906C7.87731 3.97179 5.75273 4.04948 3.63673 4.24179C3.21838 4.31915 2.83123 4.51861 2.52252 4.81585C1.83568 5.45973 1.75936 6.5613 1.68305 7.49221C1.57232 9.16595 1.57232 10.8454 1.68305 12.5191C1.70513 13.0431 1.78187 13.5631 1.912 14.0706C2.00401 14.4624 2.19018 14.8249 2.45384 15.1256C2.76464 15.4386 3.16081 15.6494 3.59094 15.7307C5.23623 15.9372 6.89404 16.0227 8.55144 15.9867C11.2225 16.0255 13.5654 15.9867 16.3356 15.7695C16.7763 15.6932 17.1836 15.4821 17.5032 15.1644C17.7169 14.9472 17.8765 14.6812 17.9688 14.3887C18.2417 13.5374 18.3757 12.6464 18.3656 11.7511C18.3961 11.3167 18.3961 8.69463 18.3961 8.22918ZM8.27671 12.2166V7.41463L12.7946 9.82723C11.5277 10.5409 9.85644 11.3477 8.27671 12.2166Z" fill="#919EAB"/>
</svg>
